<?xml version="1.0" encoding="UTF-8" standalone="no"?>
<!-- Created with Inkscape (http://www.inkscape.org/) -->

<svg
   xmlns:dc="http://purl.org/dc/elements/1.1/"
   xmlns:cc="http://creativecommons.org/ns#"
   xmlns:rdf="http://www.w3.org/1999/02/22-rdf-syntax-ns#"
   xmlns:svg="http://www.w3.org/2000/svg"
   xmlns="http://www.w3.org/2000/svg"
   xmlns:sodipodi="http://sodipodi.sourceforge.net/DTD/sodipodi-0.dtd"
   xmlns:inkscape="http://www.inkscape.org/namespaces/inkscape"
   width="132.90401mm"
   height="80mm"
   viewBox="0 0 470.91971 283.46457"
   id="svg2"
   version="1.1"
   inkscape:version="0.91 r13725"
   sodipodi:docname="logo.svg">
  <defs
     id="defs4">
    <pattern
       y="0"
       x="0"
       height="6"
       width="6"
       patternUnits="userSpaceOnUse"
       id="EMFhbasepattern" />
  </defs>
  <sodipodi:namedview
     id="base"
     pagecolor="#ffffff"
     bordercolor="#666666"
     borderopacity="1.0"
     inkscape:pageopacity="0.0"
     inkscape:pageshadow="2"
     inkscape:zoom="0.7"
     inkscape:cx="425.48422"
     inkscape:cy="196.70263"
     inkscape:document-units="px"
     inkscape:current-layer="layer1"
     showgrid="false"
     inkscape:window-width="1280"
     inkscape:window-height="657"
     inkscape:window-x="-8"
     inkscape:window-y="-8"
     inkscape:window-maximized="1" />
  <metadata
     id="metadata7">
    <rdf:RDF>
      <cc:Work
         rdf:about="">
        <dc:format>image/svg+xml</dc:format>
        <dc:type
           rdf:resource="http://purl.org/dc/dcmitype/StillImage" />
        <dc:title></dc:title>
      </cc:Work>
    </rdf:RDF>
  </metadata>
  <g
     inkscape:label="Vrstva 1"
     inkscape:groupmode="layer"
     id="layer1"
     transform="translate(0,-768.89767)">
    <g
       id="g3415"
       transform="matrix(3.4964624,0,0,3.173851,-783.25474,-468.95907)">
      <path
         style="fill:#09b309;fill-opacity:1;fill-rule:evenodd;stroke:#000000;stroke-width:0.0042699px;stroke-linecap:round;stroke-linejoin:round;stroke-miterlimit:4;stroke-dasharray:none;stroke-opacity:1"
         d="m 358.37846,435.21512 c 0,-23.69267 -29.81254,-42.70899 -66.9479,-42.70899 -37.1396,0 -66.95188,19.01632 -66.95188,42.70899 0,23.69679 29.81228,42.71744 66.95188,42.71744 37.13536,0 66.9479,-19.02065 66.9479,-42.71744 z"
         id="path3341"
         inkscape:connector-curvature="0" />
      <path
         style="fill:#bebebe;fill-opacity:1;fill-rule:evenodd;stroke:#b34d09;stroke-width:0.0042699px;stroke-linecap:round;stroke-linejoin:round;stroke-miterlimit:4;stroke-dasharray:none;stroke-opacity:1"
         d="m 352.42611,433.72019 c 0,-22.45753 -28.27951,-40.48151 -63.51467,-40.48151 -35.23093,0 -63.51046,18.02398 -63.51046,40.48151 0,22.45755 28.27953,40.48167 63.51046,40.48167 35.23516,0 63.51467,-18.02412 63.51467,-40.48167 z"
         id="path3343"
         inkscape:connector-curvature="0" />
      <path
         style="fill:#09b309;fill-opacity:1;fill-rule:evenodd;stroke:#e8640c;stroke-width:0.0042699px;stroke-linecap:round;stroke-linejoin:round;stroke-miterlimit:4;stroke-dasharray:none;stroke-opacity:1"
         d="m 257.37819,411.73115 c 1.81045,0 3.32203,0.44292 4.53051,1.33305 1.21243,0.89013 1.81892,1.93782 1.81892,3.13885 0,1.49916 -0.4826,2.78539 -1.44752,3.85865 -0.96068,1.07758 -2.05373,1.61832 -3.27067,1.61832 -0.39285,0 -0.74309,-0.16171 -1.05466,-0.47695 -0.31186,-0.31948 -0.4699,-0.66864 -0.4699,-1.06045 0,-0.23851 0.20941,-0.46849 0.61919,-0.68569 0.4143,-0.22149 0.78571,-0.3322 1.11026,-0.3322 0.34149,0 0.51224,0.22572 0.51224,0.6729 0,0.12779 -0.14083,0.31092 -0.427,0.5494 -0.0296,-0.0426 -0.11092,-0.16609 -0.23481,-0.37902 -0.12362,-0.20445 -0.26896,-0.31093 -0.42701,-0.31093 -0.34148,0 -0.51223,0.26408 -0.51223,0.79643 0,0.26405 0.10245,0.48116 0.31157,0.65163 0.2049,0.17046 0.46116,0.25541 0.76003,0.25541 0.78994,0 1.4859,-0.42588 2.08393,-1.28183 0.59774,-0.85177 0.89662,-1.85691 0.89662,-3.01535 0,-1.36287 -0.39709,-2.48299 -1.20001,-3.36459 -0.79841,-0.88161 -1.99813,-1.36285 -3.59946,-1.43527 -0.17498,1.63119 -0.26473,4.16103 -0.26473,7.58949 0,0.89013 0.0898,2.10812 0.27319,3.65413 0.18796,1.54601 0.29041,2.632 0.31186,3.26249 l 2.82674,0.23001 -0.15805,0.63443 c -0.82832,-0.13631 -1.93012,-0.24694 -3.30934,-0.33217 -1.3747,-0.0852 -2.45505,-0.11487 -3.23652,-0.0937 l -0.0683,-0.63444 c 0.66604,-0.009 1.362,0.0169 2.08365,0.0765 0.72164,0.0598 1.14864,0.0768 1.27677,0.0553 -0.0468,-0.66858 -0.16651,-1.71196 -0.36717,-3.14311 -0.46539,-3.3176 -0.70019,-6.22223 -0.70019,-8.70949 0,-1.38416 0.0169,-2.24872 0.0511,-2.58944 -1.14413,0.0426 -2.14348,0.3024 -2.99325,0.77938 -0.84958,0.47701 -1.27229,1.06051 -1.27229,1.75472 0,0.32794 0.14944,0.58773 0.44405,0.78791 0.29464,0.19592 0.63633,0.29385 1.02043,0.29385 0.94375,0 1.4176,-0.16183 1.4176,-0.48551 0,-0.0852 -0.0511,-0.15759 -0.14929,-0.22146 -0.0982,-0.0596 -0.2049,-0.0894 -0.31609,-0.0894 -0.26049,0 -0.38862,0.1235 -0.38862,0.37053 -0.21336,-0.0341 -0.32004,-0.16612 -0.32004,-0.38758 0,-0.34498 0.21336,-0.51533 0.64459,-0.51533 0.20066,0 0.39286,0.0766 0.57658,0.23424 0.17921,0.15759 0.27319,0.3109 0.27319,0.46849 0,0.37905 -0.17921,0.70273 -0.53791,0.97104 -0.35447,0.26405 -0.78994,0.40033 -1.30669,0.40033 -0.55081,0 -1.02475,-0.16608 -1.41331,-0.49403 -0.38857,-0.3322 -0.5807,-0.73253 -0.5807,-1.20102 0,-0.60904 0.35012,-1.23086 1.05037,-1.86117 0.70036,-0.63461 1.99407,-1.08179 3.88129,-1.33731 0,-0.29388 0.008,-1.0392 0.0257,-2.23596 0.96915,0.0809 1.52428,0.1235 1.65241,0.1235 -0.27742,1.17548 -0.41853,1.87821 -0.427,2.11246 z"
         id="path3345"
         inkscape:connector-curvature="0" />
      <path
         style="fill:#09b309;fill-opacity:1;fill-rule:evenodd;stroke:#e8640c;stroke-width:0.0042699px;stroke-linecap:round;stroke-linejoin:round;stroke-miterlimit:4;stroke-dasharray:none;stroke-opacity:1"
         d="m 270.7685,424.65718 c 0.32032,0 0.47837,0.16595 0.47837,0.49813 0,0.21731 -0.094,0.40047 -0.28194,0.55372 -0.18768,0.14901 -0.36717,0.22577 -0.53368,0.22577 -0.2176,0 -0.43547,-0.10639 -0.66181,-0.311 -0.22211,-0.20857 -0.33726,-0.46849 -0.33726,-0.77499 0,-0.42164 0.14083,-0.75381 0.41854,-0.99652 0.28165,-0.243 0.62766,-0.36633 1.04168,-0.36633 0.49953,0 0.91383,0.1747 1.24262,0.52381 0.33302,0.34911 0.49954,0.79219 0.49954,1.33293 0,0.63895 -0.28194,1.14582 -0.84554,1.52062 -0.5636,0.37055 -1.17828,0.55795 -1.85307,0.55795 -1.22118,0 -2.35684,-0.49841 -3.40727,-1.50763 -1.05043,-1.00528 -1.57565,-2.22758 -1.57565,-3.6672 0,-1.35438 0.508,-2.5851 1.52852,-3.69242 1.01628,-1.10733 2.09663,-1.66526 3.24527,-1.66526 0.85824,0 1.65664,0.28536 2.39099,0.84755 0.73462,0.56642 1.10179,1.15417 1.10179,1.76747 0,0.76234 -0.31185,1.38404 -0.94375,1.86975 -0.62766,0.48965 -1.4176,0.72813 -2.36982,0.72813 -0.91807,0 -1.62673,-0.12756 -2.12626,-0.38326 -0.4953,-0.25541 -0.74733,-0.61326 -0.74733,-1.07323 0,-0.41312 0.15382,-0.75384 0.46116,-1.01789 0.30734,-0.26405 0.63189,-0.3961 0.97366,-0.3961 0.29888,0 0.56783,0.0767 0.81534,0.22998 0.24356,0.15333 0.36294,0.33647 0.36294,0.54943 0,0.22572 -0.0852,0.4344 -0.25598,0.63032 -0.17102,0.19583 -0.33753,0.29376 -0.49981,0.29376 -0.31157,0 -0.46962,-0.10639 -0.46962,-0.3193 0.32032,-0.0937 0.4826,-0.25556 0.4826,-0.48554 0,-0.17887 -0.0641,-0.31942 -0.18373,-0.42164 -0.11938,-0.10648 -0.26472,-0.15756 -0.43546,-0.15756 -0.11967,0 -0.23481,0.11071 -0.34149,0.33643 -0.10697,0.22149 -0.16228,0.45148 -0.16228,0.68572 0,0.33226 0.23057,0.61759 0.69596,0.85606 0.46115,0.23848 1.02475,0.35786 1.68656,0.35786 0.5636,0 0.99907,-0.17893 1.31092,-0.52832 0.31157,-0.35334 0.46962,-0.82615 0.46962,-1.42243 0,-0.61753 -0.23058,-1.21378 -0.68749,-1.77596 -0.46116,-0.56645 -1.02475,-0.85181 -1.6908,-0.85181 -0.83679,0 -1.54573,0.46849 -2.13078,1.40547 -0.58928,0.93698 -0.8794,2.20616 -0.8794,3.80749 0,1.32023 0.33726,2.41497 1.016,3.27942 0.67903,0.86445 1.51582,1.29907 2.51093,1.29907 0.46539,0 0.92654,-0.162 1.38345,-0.47696 0.46116,-0.31947 0.68722,-0.71995 0.68722,-1.20537 0,-0.33217 -0.16652,-0.61327 -0.49954,-0.84328 -0.33725,-0.23001 -0.70442,-0.34939 -1.10151,-0.34939 -0.21788,0 -0.40555,0.0683 -0.5636,0.20461 -0.15381,0.13632 -0.23481,0.2938 -0.23481,0.48542 0,0.31948 0.2049,0.48119 0.61468,0.48119 0.1239,0 0.21788,-0.068 0.29041,-0.20856 0.0725,-0.13631 0.11091,-0.28109 0.11091,-0.43011 z"
         id="path3347"
         inkscape:connector-curvature="0" />
      <path
         style="fill:#09b309;fill-opacity:1;fill-rule:evenodd;stroke:#e8640c;stroke-width:0.0042699px;stroke-linecap:round;stroke-linejoin:round;stroke-miterlimit:4;stroke-dasharray:none;stroke-opacity:1"
         d="m 283.99682,410.34697 -0.74732,0.20444 c -0.26473,0.91141 -0.58928,3.01108 -0.96915,6.30326 -0.38439,3.29221 -0.57658,5.89441 -0.57658,7.79828 0,1.20086 0.32032,1.94621 0.95645,2.24 l -0.33302,0.42164 c -0.4826,-0.14055 -0.83256,-0.58335 -1.05044,-1.33294 -0.21336,-0.74958 -0.32004,-2.75561 -0.32004,-6.02643 -0.67056,-1.22659 -1.4049,-1.83989 -2.20754,-1.83989 -0.71317,0 -1.31515,0.40462 -1.80622,1.20955 -0.49107,0.80921 -0.73462,1.68232 -0.73462,2.62354 0,1.3287 0.22634,2.40622 0.67902,3.22834 0.44845,0.82606 1.08882,1.235 1.91714,1.235 0.36717,0 0.70894,-0.15748 1.02898,-0.47696 0.32032,-0.31947 0.4826,-0.67705 0.4826,-1.07329 0,-0.34911 -0.16228,-0.65588 -0.47808,-0.91976 -0.32033,-0.26839 -0.66633,-0.40047 -1.03774,-0.40047 -0.11514,0 -0.27319,0.0725 -0.47385,0.22154 -0.20489,0.14902 -0.3031,0.31496 -0.3031,0.49389 0,0.34093 0.20489,0.50687 0.61468,0.50687 0.11966,0 0.21787,-0.0722 0.28617,-0.22154 0.0725,-0.15325 0.11091,-0.3065 0.11091,-0.46849 0.32033,0 0.47837,0.17469 0.47837,0.51957 0,0.22578 -0.094,0.41317 -0.28194,0.57094 -0.18796,0.15748 -0.36294,0.23847 -0.52522,0.23847 -0.21759,0 -0.44393,-0.10668 -0.66604,-0.31947 -0.22634,-0.21308 -0.33726,-0.47272 -0.33726,-0.78373 0,-0.45128 0.14083,-0.82607 0.43124,-1.12014 0.29041,-0.28956 0.62343,-0.43858 0.99907,-0.43858 0.46961,0 0.8413,0.19587 1.12719,0.58336 0.28618,0.38777 0.427,0.89887 0.427,1.52484 0,0.46426 -0.20066,0.89437 -0.60621,1.29032 -0.40555,0.39624 -0.83679,0.59211 -1.28947,0.59211 -1.22541,0 -2.23323,-0.43858 -3.0147,-1.32024 -0.77696,-0.88166 -1.16981,-1.93774 -1.16981,-3.16456 0,-1.18815 0.45692,-2.24437 1.362,-3.16856 0.90961,-0.9242 1.83614,-1.38842 2.78413,-1.38842 0.35418,0 0.7428,0.13628 1.15711,0.41311 0.40978,0.27684 0.77695,0.66864 1.09728,1.16696 l 0.427,-8.49666 -1.17433,0 0,-0.4259 c 1.02927,0 2.26738,-0.10646 3.71489,-0.31942 l 0.0215,0.31942 z"
         id="path3349"
         inkscape:connector-curvature="0" />
      <path
         style="fill:#09b309;fill-opacity:1;fill-rule:evenodd;stroke:#e8640c;stroke-width:0.0042699px;stroke-linecap:round;stroke-linejoin:round;stroke-miterlimit:4;stroke-dasharray:none;stroke-opacity:1"
         d="m 288.10428,413.74989 -0.16227,0.0256 c -0.28166,-0.44295 -0.7002,-0.66441 -1.25533,-0.66441 -0.42248,0 -0.80687,0.13202 -1.15711,0.38758 -0.34572,0.25552 -0.52098,0.5494 -0.52098,0.8901 0,0.40462 0.14958,0.7283 0.45268,0.97107 0.29888,0.23848 0.59352,0.362 0.87969,0.362 0.56783,0 0.854,-0.25981 0.854,-0.77515 0,-0.58346 -0.21787,-0.87734 -0.65334,-0.87734 -0.081,0 -0.17074,0.0341 -0.26896,0.10222 -0.094,0.0682 -0.14534,0.15333 -0.14534,0.24703 0,0.19592 0.11119,0.28961 0.3333,0.28961 0.0982,0 0.2176,-0.0426 0.36294,-0.13205 -0.0855,0.37053 -0.26472,0.55793 -0.54243,0.55793 -0.1239,0 -0.23058,-0.0724 -0.32879,-0.21294 -0.094,-0.14481 -0.14083,-0.26405 -0.14083,-0.36201 0,-0.18739 0.0768,-0.35351 0.23481,-0.49405 0.15804,-0.13629 0.35024,-0.20868 0.57206,-0.20868 0.30339,0 0.58082,0.0852 0.83708,0.24703 0.25174,0.16609 0.37987,0.39607 0.37987,0.69847 0,0.3109 -0.15805,0.57921 -0.47385,0.80067 -0.31609,0.22148 -0.65758,0.3322 -1.03322,0.3322 -0.43575,0 -0.81986,-0.1533 -1.14864,-0.45997 -0.32456,-0.30663 -0.49107,-0.68994 -0.49107,-1.15417 0,-0.48554 0.17074,-0.91567 0.51223,-1.2862 0.34177,-0.37479 0.70894,-0.55793 1.1018,-0.55793 0.98636,0 1.58411,0.42588 1.8017,1.27342 z m 0.85401,13.5647 c -1.72071,0 -2.79231,0.0341 -3.21508,0.10245 -0.427,0.0638 -0.79417,0.14054 -1.10603,0.21702 l 0,-0.63443 1.43906,-0.0511 c 0,-3.29241 -0.15805,-6.43966 -0.47837,-9.44225 l -1.22964,-0.0298 0,-0.42591 c 0.76849,0.0128 1.30245,0.0213 1.60133,0.0213 0.52944,0 1.2381,-0.115 2.13472,-0.34072 l 0,0.53238 -1.016,0.17887 -0.24779,3.65001 -0.28165,5.75367 c 0.84525,0 1.64366,-0.0553 2.39945,-0.16595 l 0,0.63444 z"
         id="path3351"
         inkscape:connector-curvature="0" />
      <path
         style="fill:#09b309;fill-opacity:1;fill-rule:evenodd;stroke:#e8640c;stroke-width:0.0042699px;stroke-linecap:round;stroke-linejoin:round;stroke-miterlimit:4;stroke-dasharray:none;stroke-opacity:1"
         d="m 298.29251,417.90239 -0.0471,0.31942 c -0.60198,-0.11498 -1.08458,-0.29811 -1.45175,-0.55792 -3.07848,2.20189 -4.76081,3.41133 -5.05122,3.63711 0.59352,0.0426 1.08882,0.16623 1.49437,0.36209 0.40132,0.20009 0.70471,0.44281 0.9096,0.73688 0.20066,0.28956 0.31157,0.54497 0.32879,0.76652 0.0212,0.22154 0.0299,0.69426 0.0299,1.41816 0,0.59211 0.0553,1.01375 0.17498,1.27339 0.11514,0.25569 0.3031,0.45156 0.56359,0.5794 0.2605,0.12757 0.53792,0.1874 0.82833,0.1874 0.46115,0 0.82832,-0.17893 1.11026,-0.53679 0.27742,-0.35757 0.41402,-0.73237 0.41402,-1.12437 0,-0.55796 -0.29013,-0.83905 -0.87941,-0.83905 -0.19219,0 -0.33753,0.0215 -0.42276,0.0598 -0.0898,0.0384 -0.1366,0.14055 -0.1366,0.30226 0,0.18316 0.1493,0.27686 0.44817,0.27686 0.0556,0 0.12813,-0.0169 0.22211,-0.0511 0.0982,-0.0384 0.16651,-0.0553 0.20489,-0.0553 0.0215,0.0596 0.0342,0.11487 0.0342,0.1747 0,0.12756 -0.0553,0.23847 -0.15776,0.32794 -0.10696,0.0892 -0.23933,0.13603 -0.4016,0.13603 -0.23481,0 -0.40556,-0.085 -0.52522,-0.25118 -0.11515,-0.16594 -0.17074,-0.37056 -0.17074,-0.60903 0,-0.21731 0.13659,-0.45579 0.41853,-0.71544 0.27743,-0.25992 0.5509,-0.392 0.82409,-0.392 0.32032,0 0.56783,0.14929 0.75156,0.45155 0.17921,0.29803 0.27319,0.63895 0.27319,1.02221 0,0.72813 -0.25202,1.3033 -0.75579,1.72494 -0.50377,0.42164 -1.18703,0.63021 -2.0495,0.63021 -0.49107,0 -0.90537,-0.1874 -1.24686,-0.56642 -0.34149,-0.3748 -0.52098,-0.76652 -0.53368,-1.16699 0,-0.57912 -0.11091,-1.26069 -0.33302,-2.04865 -0.22211,-0.78769 -0.88392,-1.35411 -1.98543,-1.69503 l -0.6192,4.62957 1.81469,0.10217 -0.10245,0.53255 c -1.45175,-0.21308 -2.7669,-0.30254 -3.9497,-0.26416 l 0.0683,-0.53227 1.85307,0.068 c 0.1366,-1.57593 0.25203,-4.32703 0.34177,-8.24961 0.0895,-3.92252 0.1366,-6.46515 0.1366,-7.61932 -0.38439,0 -0.91807,-0.0341 -1.60133,-0.10646 l 0.0471,-0.4259 c 0.69596,0.0724 1.50283,0.10646 2.4209,0.10646 1.05043,0 1.88299,-0.0341 2.49372,-0.10646 l 0,0.31942 c -0.74733,0.0255 -1.31516,0.0596 -1.70801,0.10648 -0.0683,1.50766 -0.43124,5.12778 -1.08035,10.85193 l 4.78226,-3.79056 c -0.0469,-0.0511 -0.22211,-0.20018 -0.53368,-0.43868 -0.31158,-0.23851 -0.53369,-0.44292 -0.66181,-0.6133 l 0.29464,-0.31516 c 1.05043,1.02215 2.09211,1.67804 3.12137,1.96766 z"
         id="path3353"
         inkscape:connector-curvature="0" />
      <path
         style="fill:#09b309;fill-opacity:1;fill-rule:evenodd;stroke:#e8640c;stroke-width:0.0042699px;stroke-linecap:round;stroke-linejoin:round;stroke-miterlimit:4;stroke-dasharray:none;stroke-opacity:1"
         d="m 309.49221,427.20819 c -0.854,0.22578 -1.54996,0.45579 -2.07941,0.69427 l -0.25174,-2.63624 c -0.94799,1.36708 -2.08393,2.04837 -3.41179,2.04837 -1.01628,0 -1.94705,-0.39596 -2.79682,-1.19662 -0.84977,-0.79643 -1.27226,-1.76756 -1.27226,-2.9131 0,-0.46849 0.14083,-0.98806 0.42249,-1.55871 0.28194,-0.57517 0.60226,-1.03505 0.9652,-1.38857 0.36294,-0.35348 0.67451,-0.75807 0.93924,-1.20954 0.26049,-0.45571 0.39285,-0.80919 0.39285,-1.07327 0,-0.79217 -0.34996,-1.1925 -1.05467,-1.1925 -0.3031,0 -0.59774,0.0809 -0.87517,0.24277 -0.2777,0.15756 -0.41853,0.35774 -0.41853,0.59199 0,0.15759 0.0683,0.29814 0.20489,0.42164 0.1366,0.11924 0.28617,0.18313 0.44422,0.18313 0.18768,0 0.30311,-0.0171 0.34995,-0.0469 0.0471,-0.0298 0.0683,-0.0766 0.0683,-0.14054 0,-0.14907 -0.15804,-0.24703 -0.47808,-0.29388 0.16651,-0.21294 0.29887,-0.31942 0.40132,-0.31942 0.14506,0 0.27319,0.0596 0.38439,0.18313 0.11514,0.11927 0.17497,0.26408 0.17497,0.42164 0,0.24277 -0.10244,0.46849 -0.30734,0.67719 -0.20517,0.21294 -0.43123,0.31516 -0.67479,0.31516 -0.23481,0 -0.44817,-0.115 -0.64459,-0.34072 -0.19643,-0.22573 -0.29464,-0.45997 -0.29464,-0.70697 0,-0.46 0.17074,-0.90718 0.51646,-1.33734 0.34601,-0.43016 0.71318,-0.64736 1.1018,-0.64736 0.427,0 0.78119,0.17887 1.0589,0.53238 0.27742,0.35349 0.41402,0.77939 0.41402,1.27768 0,0.68571 -0.18345,1.35009 -0.55062,1.99319 -0.80716,1.4055 -1.20848,2.49996 -1.20848,3.27522 0,1.15401 0.28194,2.06559 0.83679,2.7257 0.55937,0.66435 1.31093,0.99653 2.25468,0.99653 1.15711,0 2.14347,-0.76652 2.9718,-2.2956 -0.26473,-2.38929 -0.64911,-4.74869 -1.15711,-7.08259 l -1.1701,0.0681 0.0429,-0.4259 c 1.33632,-0.0255 2.58318,-0.23851 3.73606,-0.63884 l 0.11543,0.4259 -1.17433,0.3109 c 0,2.53836 0.14083,5.85622 0.427,9.95748 0.51675,-0.0979 0.99907,-0.23848 1.44752,-0.42588 l 0.1493,0.52804 z m -2.9845,-14.1653 c -0.51251,0.22575 -0.96491,0.41312 -1.36228,0.55793 -0.40132,0.14481 -0.87941,0.38331 -1.44301,0.71125 -0.56359,0.32795 -0.95645,0.54941 -1.18279,0.66441 -0.0172,-0.0596 -0.0897,-0.19165 -0.22634,-0.3961 1.02898,-0.4855 2.28007,-1.31174 3.75327,-2.4787 0.0299,0.0511 0.0982,0.21294 0.21336,0.48125 0.1112,0.27257 0.1922,0.4259 0.24779,0.45996 z"
         id="path3355"
         inkscape:connector-curvature="0" />
      <path
         style="fill:#09b309;fill-opacity:1;fill-rule:evenodd;stroke:#e8640c;stroke-width:0.0042699px;stroke-linecap:round;stroke-linejoin:round;stroke-miterlimit:4;stroke-dasharray:none;stroke-opacity:1"
         d="m 312.63081,419.49099 c 0.30734,-1.03067 0.73857,-1.81858 1.29794,-2.36798 0.55936,-0.54517 1.12719,-0.81774 1.70377,-0.81774 0.55485,0 1.02898,0.22572 1.42607,0.67719 0.39709,0.45144 0.59775,1.00085 0.59775,1.64821 0,0.7581 -0.22634,1.37566 -0.67451,1.85267 -0.45269,0.47702 -1.0335,0.71549 -1.74216,0.71549 -0.36717,0 -0.67903,-0.14054 -0.93529,-0.42587 -0.25597,-0.28538 -0.3841,-0.62608 -0.3841,-1.02218 0,-0.19592 0.16651,-0.43866 0.49953,-0.72401 0.32879,-0.28962 0.59775,-0.43443 0.80688,-0.43443 0.29887,0 0.55513,0.0724 0.773,0.21297 0.21336,0.13628 0.32456,0.33217 0.32456,0.58346 0,0.2811 -0.25203,0.47701 -0.74733,0.58773 0.0683,-0.2172 0.10668,-0.39607 0.10668,-0.53236 0,-0.28535 -0.10244,-0.4259 -0.29887,-0.4259 -0.17074,0 -0.31581,0.10222 -0.43123,0.30664 -0.11967,0.20444 -0.17922,0.40888 -0.17922,0.61329 0,0.19166 0.0852,0.37906 0.25598,0.56219 0.17103,0.18314 0.346,0.2726 0.5382,0.2726 0.51223,0 0.91355,-0.1789 1.21242,-0.53665 0.29916,-0.362 0.44846,-0.80921 0.44846,-1.35009 0,-0.38331 -0.17498,-0.71552 -0.52945,-0.99235 -0.35024,-0.28109 -0.75156,-0.41738 -1.19973,-0.41738 -0.46567,0 -0.88815,0.1235 -1.27254,0.36627 -0.38015,0.24277 -0.73434,0.67719 -1.0589,1.29898 -0.32455,0.62609 -0.48683,1.01789 -0.48683,1.17549 0,0.11926 0.12813,2.22329 0.38862,6.31184 0.90509,-0.27263 1.73341,-0.64742 2.4765,-1.12014 l 0.13659,0.53227 c -0.83678,0.43011 -1.61402,0.7668 -2.32692,1.00951 -0.71741,0.24271 -1.63124,0.43857 -2.7415,0.58335 l 0,-0.58335 c 0.66181,0 1.30245,-0.0852 1.92165,-0.25569 0,-0.79643 -0.1795,-2.17198 -0.52945,-4.1227 -0.35024,-1.9505 -0.72588,-3.59444 -1.12748,-4.93178 l -1.59258,0.53238 -0.11091,-0.31942 c 1.47291,-0.37479 2.64301,-0.95828 3.51846,-1.75468 -0.0728,0.63883 -0.10696,1.07749 -0.10696,1.32026 0,0.65588 0.013,1.31603 0.0429,1.97191 z"
         id="path3357"
         inkscape:connector-curvature="0" />
      <path
         style="fill:#09b309;fill-opacity:1;fill-rule:evenodd;stroke:#e8640c;stroke-width:0.0042699px;stroke-linecap:round;stroke-linejoin:round;stroke-miterlimit:4;stroke-dasharray:none;stroke-opacity:1"
         d="m 321.70848,419.76356 c -0.0514,0.28536 -0.2221,0.42591 -0.51674,0.42591 -0.16228,0 -0.29464,-0.0596 -0.39709,-0.17462 -0.10245,-0.11926 -0.15353,-0.27259 -0.15353,-0.45999 0,-0.22146 0.0982,-0.42587 0.28589,-0.61753 0.18796,-0.19592 0.39285,-0.29388 0.61073,-0.29388 1.0033,0 1.50735,0.29388 1.50735,0.87308 0,0.48554 -0.26049,0.93272 -0.77301,1.34166 -0.51675,0.40443 -0.96068,0.60904 -1.33209,0.60904 -0.43998,0 -0.81139,-0.12785 -1.11873,-0.37903 -0.30762,-0.24722 -0.45691,-0.58358 -0.45691,-1.00096 0,-0.86882 0.40555,-1.75042 1.22117,-2.64907 0.81986,-0.89866 1.66963,-1.34584 2.55327,-1.34584 0.72587,0 1.3366,0.3109 1.8319,0.93698 0.49107,0.62605 0.73857,1.39268 0.73857,2.30835 0,0.65163 -0.0895,1.20955 -0.27319,1.67378 -0.17921,0.46425 -0.45691,1.00951 -0.82832,1.63971 -0.95221,1.58439 -1.42607,3.04094 -1.42607,4.36541 0,0.14902 0.004,0.30254 0.0212,0.46002 l -0.47808,0 0.0212,-1.50339 c -0.93077,0.61327 -1.60528,0.91976 -2.01112,0.91976 -0.508,0 -0.92653,-0.15748 -1.25532,-0.46849 -0.32427,-0.31073 -0.49107,-0.71543 -0.49107,-1.21779 0,-0.473 0.24356,-0.89013 0.73463,-1.25222 0.48683,-0.36209 1.02898,-0.54525 1.62673,-0.54525 0.42277,0 1.10179,-0.0468 2.03679,-0.13632 0.5509,-1.19662 0.82833,-2.26144 0.82833,-3.19842 0,-2.15928 -0.50377,-3.23681 -1.51159,-3.23681 -0.92653,0 -1.58834,0.28962 -1.98966,0.87309 -0.40584,0.58349 -0.6065,1.38842 -0.6065,2.41057 0,0.28535 0.0855,0.52386 0.25626,0.7239 0.17074,0.20038 0.38015,0.30254 0.62766,0.30254 0.31186,0 0.6065,-0.14478 0.88392,-0.43442 0.28194,-0.28536 0.42277,-0.60054 0.42277,-0.93698 0,-0.19166 -0.0898,-0.35351 -0.26049,-0.49406 -0.17074,-0.14055 -0.3587,-0.20867 -0.56783,-0.20867 -0.0897,0 -0.17075,0.0511 -0.23933,0.15333 -0.0725,0.10219 -0.10668,0.20867 -0.10668,0.31942 0,0.21719 0.077,0.32368 0.23481,0.32368 0.12813,0 0.24356,-0.0341 0.35024,-0.10649 z m 1.52005,3.9352 c -0.61496,0.0384 -1.11026,0.0895 -1.49013,0.14929 -0.37592,0.0638 -0.67903,0.23425 -0.9096,0.51534 -0.23058,0.28109 -0.34572,0.57489 -0.34572,0.88138 0,0.29408 0.0768,0.53255 0.2348,0.72418 0.15805,0.19163 0.36294,0.28533 0.6192,0.28533 0.44394,0 0.94347,-0.27686 1.4986,-0.83058 l 0.39285,-1.72494 z"
         id="path3359"
         inkscape:connector-curvature="0" />
      <path
         style="fill:#09b309;fill-opacity:1;fill-rule:evenodd;stroke:#f37a29;stroke-width:0.0042699px;stroke-linecap:round;stroke-linejoin:round;stroke-miterlimit:4;stroke-dasharray:none;stroke-opacity:1"
         d="m 247.01518,440.74329 c -0.40563,0.0299 -0.75576,0.0638 -1.04611,0.11063 0.0171,0.58787 0.0598,1.397 0.1281,2.42344 0.064,1.02221 0.0982,1.98035 0.0982,2.87048 0,0.9669 -0.11529,1.92504 -0.3416,2.87048 -0.22202,0.9415 -0.59777,1.64423 -1.11444,2.09974 -0.52092,0.45579 -1.11873,0.6858 -1.78909,0.6858 -0.61914,0 -1.1785,-0.23001 -1.67807,-0.69004 -0.50385,-0.46002 -0.7515,-0.98382 -0.7515,-1.57564 0,-0.60057 0.23484,-1.13736 0.71307,-1.60585 0.47822,-0.47272 0.94792,-0.70696 1.40907,-0.70696 0.43979,0 0.81554,0.16199 1.13578,0.48119 0.31598,0.3237 0.47396,0.6985 0.47396,1.12888 0,0.2811 -0.14517,0.54498 -0.43126,0.78345 -0.28609,0.24271 -0.57215,0.36209 -0.8625,0.36209 -0.23057,0 -0.44834,-0.0979 -0.64476,-0.28956 -0.20069,-0.19162 -0.30317,-0.4047 -0.30317,-0.63895 0,-0.18316 0.0598,-0.33641 0.17507,-0.45579 0.11528,-0.11909 0.26901,-0.17864 0.4526,-0.17864 0.32878,0 0.49532,0.14054 0.49532,0.4174 -0.13665,-0.0299 -0.23912,-0.0468 -0.30316,-0.0468 -0.0683,0 -0.1281,0.0339 -0.17935,0.1064 -0.0555,0.068 -0.0811,0.14055 -0.0811,0.21703 0,0.18316 0.0384,0.33669 0.11955,0.46002 0.0769,0.12362 0.15372,0.1874 0.23057,0.1874 0.17507,0 0.31598,-0.1191 0.42272,-0.34911 0.10676,-0.23424 0.16225,-0.46002 0.16225,-0.67733 0,-0.36605 -0.0726,-0.66859 -0.21777,-0.8986 -0.14517,-0.23424 -0.34157,-0.34911 -0.58922,-0.34911 -0.35015,0 -0.64477,0.19586 -0.88389,0.58759 -0.24336,0.39624 -0.36294,0.86049 -0.36294,1.40123 0,0.6175 0.13236,1.11591 0.40138,1.49493 0.26901,0.38326 0.63621,0.57489 1.10162,0.57489 0.78568,0 1.39201,-0.34488 1.81898,-1.03068 0.42271,-0.68975 0.63621,-1.88665 0.63621,-3.59438 0,-0.77103 -0.0939,-1.74187 -0.27753,-2.91761 -0.18362,-1.17546 -0.38857,-2.17622 -0.61914,-2.99833 -0.21776,0.0299 -0.78994,0.0725 -1.71651,0.11515 l 0,-0.37479 c 1.43042,-0.0511 2.39116,-0.11515 2.8822,-0.1874 0.48675,-0.0725 0.93082,-0.17046 1.33646,-0.29379 l 0,0.48119 z"
         id="path3361"
         inkscape:connector-curvature="0" />
      <path
         style="fill:#09b309;fill-opacity:1;fill-rule:evenodd;stroke:#f37a29;stroke-width:0.0042699px;stroke-linecap:round;stroke-linejoin:round;stroke-miterlimit:4;stroke-dasharray:none;stroke-opacity:1"
         d="m 250.15355,445.62404 c -0.0384,0.20009 -0.15796,0.29802 -0.36294,0.29802 -0.11528,0 -0.20495,-0.0426 -0.27753,-0.12333 -0.0726,-0.081 -0.10674,-0.18739 -0.10674,-0.31947 0,-0.15325 0.064,-0.29803 0.1964,-0.43434 0.13239,-0.13632 0.27756,-0.20461 0.427,-0.20461 0.70454,0 1.05467,0.20461 1.05467,0.61327 0,0.34092 -0.17933,0.65165 -0.53801,0.93697 -0.36293,0.2811 -0.67039,0.42588 -0.93511,0.42588 -0.30742,0 -0.56789,-0.0892 -0.78139,-0.26388 -0.2135,-0.1747 -0.32024,-0.40894 -0.32024,-0.70273 0,-0.60904 0.28609,-1.22654 0.85398,-1.85279 0.57215,-0.63021 1.16995,-0.94121 1.78909,-0.94121 0.50811,0 0.93509,0.21731 1.28095,0.65588 0.34598,0.43886 0.51672,0.97536 0.51672,1.61431 0,0.45551 -0.0641,0.84751 -0.19219,1.17122 -0.12384,0.32371 -0.32024,0.70697 -0.5807,1.14554 -0.66184,1.11168 -0.99489,2.12965 -0.99489,3.05788 0,0.10245 0.004,0.21308 0.0128,0.32371 l -0.33305,0 0.0128,-1.05608 c -0.649,0.43011 -1.1187,0.64742 -1.40479,0.64742 -0.35868,0 -0.64903,-0.11091 -0.8796,-0.32794 -0.23058,-0.21731 -0.34158,-0.50264 -0.34158,-0.85203 0,-0.33217 0.1708,-0.62173 0.51238,-0.87715 0.3416,-0.25569 0.72161,-0.38354 1.1358,-0.38354 0.29887,0 0.77284,-0.0296 1.42613,-0.0937 0.38856,-0.83876 0.58499,-1.58411 0.58499,-2.23999 0,-1.51215 -0.35442,-2.26597 -1.06322,-2.26597 -0.64474,0 -1.11015,0.20462 -1.39198,0.61327 -0.2818,0.40471 -0.42271,0.97113 -0.42271,1.68656 0,0.19615 0.0598,0.36633 0.17933,0.50687 0.11954,0.14055 0.26475,0.20885 0.43981,0.20885 0.21776,0 0.42271,-0.0979 0.61911,-0.29831 0.19643,-0.20433 0.29464,-0.42164 0.29464,-0.66012 0,-0.13208 -0.0598,-0.24694 -0.17935,-0.34487 -0.12381,-0.0979 -0.25617,-0.14902 -0.40135,-0.14902 -0.0598,0 -0.11958,0.0384 -0.16654,0.11063 -0.0512,0.0725 -0.0768,0.14478 -0.0768,0.22578 0,0.14902 0.0555,0.22155 0.16651,0.22155 0.0897,0 0.1708,-0.0214 0.24765,-0.0725 z m 1.05896,2.75562 c -0.42701,0.0254 -0.77713,0.0596 -1.03759,0.10216 -0.26473,0.0468 -0.47823,0.16623 -0.64048,0.36209 -0.16228,0.19586 -0.24339,0.40443 -0.24339,0.6175 0,0.20433 0.0555,0.37479 0.16651,0.50687 0.11103,0.13208 0.25194,0.2001 0.43127,0.2001 0.31171,0 0.66184,-0.19586 1.0504,-0.58335 l 0.27328,-1.20537 z"
         id="path3363"
         inkscape:connector-curvature="0" />
      <path
         style="fill:#09b309;fill-opacity:1;fill-rule:evenodd;stroke:#f37a29;stroke-width:0.0042699px;stroke-linecap:round;stroke-linejoin:round;stroke-miterlimit:4;stroke-dasharray:none;stroke-opacity:1"
         d="m 255.57196,445.84982 c 0.55514,-1.56747 1.37922,-2.35092 2.48102,-2.35092 0.78119,0 1.48167,0.33218 2.10481,0.98806 0.62343,0.66012 0.93529,1.43087 0.93529,2.31677 0,0.97112 -0.29041,1.90387 -0.86247,2.80246 -0.57235,0.89437 -1.17856,1.34169 -1.81469,1.34169 -0.27771,0 -0.54667,-0.12362 -0.81139,-0.37056 -0.26473,-0.24723 -0.39709,-0.5111 -0.39709,-0.78373 0,-0.22155 0.11515,-0.41741 0.34149,-0.5921 0.22634,-0.17442 0.45692,-0.26388 0.69596,-0.26388 0.55513,0 0.83284,0.17441 0.83284,0.51534 0,0.32794 -0.20518,0.48965 -0.6065,0.48965 -0.18767,0 -0.29887,-0.0342 -0.32879,-0.1064 l 0.0641,-0.0725 c 0.0683,0.0215 0.13237,0.0299 0.18373,0.0299 0.10668,0 0.16228,-0.0979 0.16228,-0.29802 0,-0.22155 -0.10245,-0.33218 -0.30762,-0.33218 -0.11092,0 -0.21336,0.0807 -0.30311,0.24271 -0.0895,0.16595 -0.1366,0.33218 -0.1366,0.49813 0,0.4984 0.22635,0.74534 0.6748,0.74534 1.02051,0 1.52851,-1.36708 1.52851,-4.10972 0,-0.6604 -0.20066,-1.28636 -0.59774,-1.86548 -0.40132,-0.58364 -0.86247,-0.8732 -1.38769,-0.8732 -0.43998,0 -0.8413,0.1747 -1.20848,0.53255 -0.36293,0.35335 -0.64911,0.77075 -0.86247,1.24771 -0.20912,0.48119 -0.31185,0.74958 -0.31185,0.81336 l -0.29888,4.22092 0.84131,-0.22578 0.094,0.29803 c -0.5509,0.14901 -0.96069,0.22154 -1.22541,0.22154 -0.26049,0 -0.63641,-0.0257 -1.12324,-0.0725 l 0.0686,-0.29803 1.02898,0.0768 c 0.0127,-0.20461 0.0169,-0.44732 0.0169,-0.73264 0,-2.13812 -0.20066,-4.16532 -0.59775,-6.09036 l -0.84102,0.15325 -0.0897,-0.2938 c 0.70866,-0.0979 1.44328,-0.34487 2.20331,-0.74535 l -0.14535,2.94302 z"
         id="path3365"
         inkscape:connector-curvature="0" />
      <path
         style="fill:#09b309;fill-opacity:1;fill-rule:evenodd;stroke:#f37a29;stroke-width:0.0042699px;stroke-linecap:round;stroke-linejoin:round;stroke-miterlimit:4;stroke-dasharray:none;stroke-opacity:1"
         d="m 264.30392,445.62404 c -0.0384,0.20009 -0.15804,0.29802 -0.36294,0.29802 -0.11514,0 -0.20489,-0.0426 -0.27742,-0.12333 -0.0725,-0.081 -0.10668,-0.18739 -0.10668,-0.31947 0,-0.15325 0.0641,-0.29803 0.19642,-0.43434 0.13237,-0.13632 0.27743,-0.20461 0.42701,-0.20461 0.70442,0 1.05466,0.20461 1.05466,0.61327 0,0.34092 -0.17949,0.65165 -0.5382,0.93697 -0.36293,0.2811 -0.67027,0.42588 -0.93077,0.42588 -0.31157,0 -0.57206,-0.0892 -0.7857,-0.26388 -0.21336,-0.1747 -0.32032,-0.40894 -0.32032,-0.70273 0,-0.60904 0.28617,-1.22654 0.85823,-1.85279 0.56812,-0.63021 1.16586,-0.94121 1.78506,-0.94121 0.508,0 0.935,0.21731 1.28072,0.65588 0.34601,0.43886 0.51675,0.97536 0.51675,1.61431 0,0.45551 -0.0641,0.84751 -0.18796,1.17122 -0.12784,0.32371 -0.32427,0.70697 -0.58053,1.14554 -0.66604,1.11168 -0.99907,2.12965 -0.99907,3.05788 0,0.10245 0.004,0.21308 0.0169,0.32371 l -0.33725,0 0.0127,-1.05608 c -0.64911,0.43011 -1.11873,0.64742 -1.40462,0.64742 -0.35871,0 -0.64911,-0.11091 -0.87969,-0.32794 -0.23057,-0.21731 -0.34149,-0.50264 -0.34149,-0.85203 0,-0.33217 0.17075,-0.62173 0.51224,-0.87715 0.34149,-0.25569 0.72164,-0.38354 1.14017,-0.38354 0.29464,0 0.77273,-0.0296 1.42184,-0.0937 0.38862,-0.83876 0.58505,-1.58411 0.58505,-2.23999 0,-1.51215 -0.35447,-2.26597 -1.05918,-2.26597 -0.64883,0 -1.11422,0.20462 -1.39616,0.61327 -0.28194,0.40471 -0.42277,0.97113 -0.42277,1.68656 0,0.19615 0.0598,0.36633 0.1795,0.50687 0.11938,0.14055 0.26472,0.20885 0.4397,0.20885 0.21788,0 0.42277,-0.0979 0.6192,-0.29831 0.19642,-0.20433 0.29464,-0.42164 0.29464,-0.66012 0,-0.13208 -0.0598,-0.24694 -0.1795,-0.34487 -0.12361,-0.0979 -0.25597,-0.14902 -0.40132,-0.14902 -0.0598,0 -0.11966,0.0384 -0.16651,0.11063 -0.0514,0.0725 -0.0768,0.14478 -0.0768,0.22578 0,0.14902 0.0553,0.22155 0.16651,0.22155 0.0895,0 0.17075,-0.0214 0.24751,-0.0725 z m 1.06341,2.75562 c -0.43151,0.0254 -0.78147,0.0596 -1.04196,0.10216 -0.26473,0.0468 -0.47837,0.16623 -0.64036,0.36209 -0.16228,0.19586 -0.24356,0.40443 -0.24356,0.6175 0,0.20433 0.0556,0.37479 0.16651,0.50687 0.1112,0.13208 0.25626,0.2001 0.43124,0.2001 0.31185,0 0.66181,-0.19586 1.05043,-0.58335 l 0.2777,-1.20537 z"
         id="path3367"
         inkscape:connector-curvature="0" />
      <path
         style="fill:#09b309;fill-opacity:1;fill-rule:evenodd;stroke:#f37a29;stroke-width:0.0042699px;stroke-linecap:round;stroke-linejoin:round;stroke-miterlimit:4;stroke-dasharray:none;stroke-opacity:1"
         d="m 279.94891,442.57039 c 0,0.0553 -0.0426,0.1064 -0.1239,0.15325 -0.081,0.0469 -0.15804,0.0683 -0.22634,0.0683 -0.10245,0 -0.19643,-0.0384 -0.27742,-0.11938 -0.0813,-0.081 -0.11967,-0.16171 -0.11967,-0.24271 0,-0.11515 0.0556,-0.23848 0.17075,-0.37056 0.11119,-0.13208 0.23057,-0.19586 0.35447,-0.19586 0.20066,0 0.39285,0.0722 0.58081,0.21703 0.18345,0.14929 0.27319,0.31101 0.27319,0.48994 0,0.27262 -0.11938,0.50263 -0.3587,0.69003 -0.23481,0.18316 -0.50377,0.27686 -0.79417,0.27686 -0.32456,0 -0.6192,-0.13631 -0.87969,-0.41741 -0.26472,-0.27686 -0.39257,-0.57093 -0.39257,-0.88166 0,-0.46849 0.17074,-0.86473 0.508,-1.18844 0.34149,-0.32794 0.71741,-0.48965 1.13143,-0.48965 0.63641,0 1.17432,0.43857 1.61826,1.32023 0.43998,0.88166 0.66181,2.04442 0.66181,3.48827 0,1.58411 -0.36717,2.93426 -1.09728,4.0544 -0.73011,1.11591 -1.73792,1.67386 -3.01865,1.67386 -1.11026,0 -2.07518,-0.4301 -2.89927,-1.2906 -0.82409,-0.86021 -1.23839,-1.87395 -1.23839,-3.03219 0,-0.56219 0.0257,-1.06906 0.0813,-1.52485 0.0511,-0.45579 0.14506,-1.16276 0.28589,-2.12513 l 0.26896,-1.81864 -0.89662,0 0,-0.26416 c 0.80292,-0.0127 1.37499,-0.0339 1.72494,-0.068 0.35024,-0.0299 0.83284,-0.12785 1.45204,-0.30255 l 0,0.37056 -0.93529,0.18316 c -0.0982,0.2684 -0.25626,0.83058 -0.46962,1.68233 -0.21364,0.85175 -0.3587,1.56746 -0.43123,2.14658 -0.0725,0.57912 -0.10668,1.25646 -0.10668,2.03144 0,0.97536 0.30311,1.8271 0.91355,2.55129 0.6065,0.72813 1.35354,1.09022 2.24169,1.09022 1.15711,0 2.05825,-0.50264 2.70285,-1.51186 0.64911,-1.00951 0.97366,-2.2829 0.97366,-3.82468 0,-1.37132 -0.15804,-2.41469 -0.46962,-3.13041 -0.31185,-0.7112 -0.76454,-1.06906 -1.35353,-1.06906 -0.30763,0 -0.57235,0.12362 -0.79446,0.3621 -0.22183,0.23847 -0.33302,0.51957 -0.33302,0.83904 0,0.2684 0.0897,0.48994 0.26924,0.66435 0.18344,0.1747 0.3714,0.25993 0.5763,0.25993 0.14506,0 0.28617,-0.0596 0.4143,-0.1747 0.13236,-0.11909 0.19643,-0.24271 0.19643,-0.37479 0,-0.15748 -0.0429,-0.31524 -0.1239,-0.47695 -0.0855,-0.162 -0.16228,-0.23848 -0.23058,-0.23848 -0.13659,0 -0.20489,0.0638 -0.20489,0.19586 0,0.0979 0.12361,0.20856 0.37564,0.32371 z"
         id="path3369"
         inkscape:connector-curvature="0" />
      <path
         style="fill:#09b309;fill-opacity:1;fill-rule:evenodd;stroke:#f37a29;stroke-width:0.0042699px;stroke-linecap:round;stroke-linejoin:round;stroke-miterlimit:4;stroke-dasharray:none;stroke-opacity:1"
         d="m 285.23916,445.43241 c 0.21365,-0.71967 0.51675,-1.27339 0.90961,-1.65665 0.39285,-0.37902 0.78994,-0.57093 1.19126,-0.57093 0.38862,0 0.72164,0.15776 0.99935,0.473 0.28165,0.31496 0.41825,0.69822 0.41825,1.15401 0,0.53255 -0.15805,0.96266 -0.46962,1.29907 -0.31609,0.33217 -0.72164,0.49812 -1.22117,0.49812 -0.25626,0 -0.47837,-0.0979 -0.65335,-0.29803 -0.17921,-0.20009 -0.26896,-0.43857 -0.26896,-0.71543 0,-0.13631 0.11515,-0.30677 0.34573,-0.50687 0.23509,-0.20433 0.42276,-0.30226 0.56811,-0.30226 0.20913,0 0.38834,0.0468 0.53791,0.14478 0.15382,0.0979 0.23058,0.23424 0.23058,0.41317 0,0.19587 -0.17498,0.33218 -0.52522,0.40866 0.0514,-0.15325 0.0768,-0.27686 0.0768,-0.37479 0,-0.19586 -0.0725,-0.29803 -0.20912,-0.29803 -0.11966,0 -0.22211,0.0722 -0.30311,0.21731 -0.0813,0.14478 -0.12389,0.28533 -0.12389,0.43011 0,0.1318 0.0598,0.26388 0.17949,0.39173 0.11938,0.12784 0.24327,0.19162 0.37564,0.19162 0.3587,0 0.64036,-0.12361 0.84977,-0.37479 0.20912,-0.25117 0.31157,-0.56642 0.31157,-0.94544 0,-0.26839 -0.12389,-0.50264 -0.36717,-0.69427 -0.24751,-0.19586 -0.52945,-0.29379 -0.8413,-0.29379 -0.32851,0 -0.62315,0.0852 -0.89239,0.25541 -0.26473,0.17046 -0.51223,0.47724 -0.73858,0.91158 -0.23057,0.43857 -0.34149,0.7112 -0.34149,0.82183 0,0.081 0.0895,1.55448 0.26896,4.42101 0.63613,-0.19614 1.21694,-0.45579 1.73793,-0.78796 l 0.0937,0.37479 c -0.58477,0.29802 -1.13143,0.5365 -1.63097,0.70696 -0.49953,0.17047 -1.14017,0.3065 -1.91713,0.40894 l 0,-0.40894 c 0.46115,0 0.90932,-0.0596 1.34507,-0.18316 0,-0.55372 -0.1239,-1.5161 -0.37169,-2.88346 -0.24327,-1.36285 -0.508,-2.51686 -0.7857,-3.44961 l -1.11873,0.37056 -0.0768,-0.22154 c 1.02898,-0.26416 1.85307,-0.67282 2.4638,-1.23077 -0.0514,0.44704 -0.0768,0.75381 -0.0768,0.92427 0,0.45974 0.0127,0.91977 0.0296,1.37979 z"
         id="path3371"
         inkscape:connector-curvature="0" />
      <path
         style="fill:#09b309;fill-opacity:1;fill-rule:evenodd;stroke:#f37a29;stroke-width:0.0042699px;stroke-linecap:round;stroke-linejoin:round;stroke-miterlimit:4;stroke-dasharray:none;stroke-opacity:1"
         d="m 292.30601,446.25876 c -0.27319,-0.013 -0.41007,-0.11938 -0.41007,-0.33246 0,-0.14478 0.0556,-0.27658 0.16679,-0.39173 0.11515,-0.11486 0.23905,-0.17018 0.38411,-0.17018 0.17074,0 0.32032,0.0765 0.45268,0.22973 0.12813,0.15353 0.1922,0.33669 0.1922,0.54949 0,0.28109 -0.0982,0.4984 -0.28618,0.65588 -0.19219,0.162 -0.40555,0.23848 -0.64488,0.23848 -0.27319,0 -0.50376,-0.10216 -0.69172,-0.30649 -0.19191,-0.20461 -0.28166,-0.46426 -0.28166,-0.78373 0,-0.46003 0.20066,-0.88167 0.61045,-1.26916 0.40583,-0.38749 0.84977,-0.58363 1.32813,-0.58363 0.67028,0 1.28101,0.31947 1.83163,0.94996 0.54666,0.6302 0.81985,1.30753 0.81985,2.0272 0,0.94121 -0.34572,1.78026 -1.04168,2.52984 -0.69624,0.74958 -1.4605,1.12437 -2.29306,1.12437 -0.508,0 -0.98213,-0.16623 -1.4176,-0.50263 -0.43547,-0.33218 -0.69172,-0.74959 -0.77272,-1.24771 -0.26049,0.45127 -0.49982,0.77498 -0.72164,0.96661 l -0.2478,-0.14901 c 0.1922,-0.19163 0.36294,-0.41317 0.50829,-0.66012 0.14506,-0.24271 0.25174,-0.47695 0.32004,-0.70273 0.0683,-0.22155 0.14957,-0.71544 0.24355,-1.478 0.094,-0.76652 0.18345,-1.69926 0.2605,-2.80218 0.081,-1.10321 0.12361,-2.2019 0.12361,-3.30511 0,-0.38326 -0.0254,-0.92004 -0.0768,-1.60133 l -0.93077,0.0468 0.0127,-0.29379 c 0.95645,0 1.91713,-0.1747 2.88657,-0.52381 l 0.0469,0.29803 -0.67028,0.19586 c -0.20489,1.64395 -0.49953,3.43267 -0.87969,5.35771 -0.38438,1.92504 -0.57629,3.16032 -0.57629,3.7053 0,0.72418 0.18767,1.3033 0.56783,1.74215 0.37563,0.43858 0.83255,0.65589 1.37047,0.65589 0.60649,0 1.13171,-0.33246 1.57564,-1.00104 0.44422,-0.66859 0.66605,-1.41817 0.66605,-2.24875 0,-0.66435 -0.18345,-1.28185 -0.55062,-1.85251 -0.37168,-0.57065 -0.78994,-0.85626 -1.26407,-0.85626 -0.38834,0 -0.73858,0.13631 -1.04592,0.41317 -0.30762,0.27686 -0.46115,0.60904 -0.46115,0.99653 0,0.15776 0.081,0.30678 0.24751,0.45579 0.16228,0.14478 0.33302,0.22154 0.50377,0.22154 0.16228,0 0.32032,-0.0469 0.47413,-0.14478 0.15381,-0.0937 0.23058,-0.19586 0.23058,-0.30254 0,-0.20009 -0.15381,-0.29803 -0.45692,-0.29803 -0.11966,0 -0.17498,0.0553 -0.17498,0.17047 0,0.0381 0.0212,0.13179 0.0725,0.27686 z"
         id="path3373"
         inkscape:connector-curvature="0" />
      <path
         style="fill:#09b309;fill-opacity:1;fill-rule:evenodd;stroke:#f37a29;stroke-width:0.0042699px;stroke-linecap:round;stroke-linejoin:round;stroke-miterlimit:4;stroke-dasharray:none;stroke-opacity:1"
         d="m 298.68959,445.62404 c -0.0342,0.20009 -0.15381,0.29802 -0.36293,0.29802 -0.1112,0 -0.20518,-0.0426 -0.27771,-0.12333 -0.0683,-0.081 -0.10668,-0.18739 -0.10668,-0.31947 0,-0.15325 0.0683,-0.29803 0.20066,-0.43434 0.13236,-0.13632 0.27319,-0.20461 0.427,-0.20461 0.70019,0 1.05467,0.20461 1.05467,0.61327 0,0.34092 -0.17922,0.65165 -0.54244,0.93697 -0.35842,0.2811 -0.67027,0.42588 -0.93076,0.42588 -0.30734,0 -0.56784,-0.0892 -0.7812,-0.26388 -0.21787,-0.1747 -0.32032,-0.40894 -0.32032,-0.70273 0,-0.60904 0.28166,-1.22654 0.85401,-1.85279 0.57206,-0.63021 1.16557,-0.94121 1.78477,-0.94121 0.508,0 0.935,0.21731 1.28101,0.65588 0.34572,0.43886 0.52098,0.97536 0.52098,1.61431 0,0.45551 -0.0641,0.84751 -0.19219,1.17122 -0.12813,0.32371 -0.32033,0.70697 -0.58082,1.14554 -0.66604,1.11168 -0.99906,2.12965 -0.99906,3.05788 0,0.10245 0.009,0.21308 0.0169,0.32371 l -0.33726,0 0.0172,-1.05608 c -0.65334,0.43011 -1.12296,0.64742 -1.40913,0.64742 -0.35448,0 -0.64488,-0.11091 -0.87546,-0.32794 -0.23057,-0.21731 -0.34572,-0.50264 -0.34572,-0.85203 0,-0.33217 0.17074,-0.62173 0.51223,-0.87715 0.34177,-0.25569 0.72165,-0.38354 1.14018,-0.38354 0.29887,0 0.77273,-0.0296 1.42607,-0.0937 0.38862,-0.83876 0.58081,-1.58411 0.58081,-2.23999 0,-1.51215 -0.35023,-2.26597 -1.05889,-2.26597 -0.64912,0 -1.11027,0.20462 -1.39221,0.61327 -0.28165,0.40471 -0.42248,0.97113 -0.42248,1.68656 0,0.19615 0.0596,0.36633 0.17921,0.50687 0.11966,0.14055 0.26472,0.20885 0.4397,0.20885 0.21788,0 0.42277,-0.0979 0.6192,-0.29831 0.19642,-0.20433 0.2904,-0.42164 0.2904,-0.66012 0,-0.13208 -0.0598,-0.24694 -0.17921,-0.34487 -0.11966,-0.0979 -0.25202,-0.14902 -0.39709,-0.14902 -0.0641,0 -0.11966,0.0384 -0.17102,0.11063 -0.0469,0.0725 -0.0725,0.14478 -0.0725,0.22578 0,0.14902 0.0556,0.22155 0.16651,0.22155 0.0898,0 0.17074,-0.0214 0.24356,-0.0725 z m 1.06313,2.75562 c -0.43123,0.0254 -0.77724,0.0596 -1.04196,0.10216 -0.26472,0.0468 -0.47385,0.16623 -0.63613,0.36209 -0.16228,0.19586 -0.24327,0.40443 -0.24327,0.6175 0,0.20433 0.0553,0.37479 0.16651,0.50687 0.10668,0.13208 0.25174,0.2001 0.43123,0.2001 0.31158,0 0.66181,-0.19586 1.05043,-0.58335 l 0.27319,-1.20537 z m 1.47744,-7.64484 c -0.35871,0.15748 -0.6748,0.28533 -0.95645,0.38749 -0.27771,0.10217 -0.61497,0.26839 -1.00782,0.49841 -0.39709,0.23424 -0.67028,0.38749 -0.82832,0.46425 -0.0127,-0.0426 -0.0641,-0.13208 -0.15805,-0.27263 0.72165,-0.34092 1.5971,-0.92004 2.62608,-1.73764 0.0212,0.0381 0.0725,0.14902 0.1493,0.33641 0.0813,0.19163 0.13659,0.29803 0.17526,0.32371 z"
         id="path3375"
         inkscape:connector-curvature="0" />
      <path
         style="fill:#09b309;fill-opacity:1;fill-rule:evenodd;stroke:#f37a29;stroke-width:0.0042699px;stroke-linecap:round;stroke-linejoin:round;stroke-miterlimit:4;stroke-dasharray:none;stroke-opacity:1"
         d="m 304.10798,445.84982 c 0.55513,-1.56747 1.38345,-2.35092 2.48496,-2.35092 0.77724,0 1.48167,0.33218 2.10087,0.98806 0.62343,0.66012 0.935,1.43087 0.935,2.31677 0,0.97112 -0.28589,1.90387 -0.85824,2.80246 -0.5763,0.89437 -1.18251,1.34169 -1.81892,1.34169 -0.27319,0 -0.54638,-0.12362 -0.81111,-0.37056 -0.26049,-0.24723 -0.39285,-0.5111 -0.39285,-0.78373 0,-0.22155 0.11091,-0.41741 0.34149,-0.5921 0.22634,-0.17442 0.45692,-0.26388 0.69596,-0.26388 0.5509,0 0.82832,0.17441 0.82832,0.51534 0,0.32794 -0.20066,0.48965 -0.60621,0.48965 -0.18373,0 -0.29464,-0.0342 -0.32456,-0.1064 l 0.0641,-0.0725 c 0.0683,0.0215 0.13236,0.0299 0.18373,0.0299 0.10668,0 0.16227,-0.0979 0.16227,-0.29802 0,-0.22155 -0.10272,-0.33218 -0.31185,-0.33218 -0.11091,0 -0.20913,0.0807 -0.29887,0.24271 -0.094,0.16595 -0.1366,0.33218 -0.1366,0.49813 0,0.4984 0.22634,0.74534 0.67451,0.74534 1.02052,0 1.5288,-1.36708 1.5288,-4.10972 0,-0.6604 -0.20066,-1.28636 -0.59775,-1.86548 -0.4016,-0.58364 -0.86275,-0.8732 -1.38797,-0.8732 -0.4397,0 -0.84525,0.1747 -1.20819,0.53255 -0.36294,0.35335 -0.65334,0.77075 -0.86247,1.24771 -0.20941,0.48119 -0.31609,0.74958 -0.31609,0.81336 l -0.29464,4.22092 0.83679,-0.22578 0.094,0.29803 c -0.55062,0.14901 -0.95645,0.22154 -1.22118,0.22154 -0.26049,0 -0.63613,-0.0257 -1.12719,-0.0725 l 0.0725,-0.29803 1.02926,0.0768 c 0.0127,-0.20461 0.0169,-0.44732 0.0169,-0.73264 0,-2.13812 -0.20066,-4.16532 -0.59774,-6.09036 l -0.84554,0.15325 -0.0895,-0.2938 c 0.71289,-0.0979 1.44723,-0.34487 2.20302,-0.74535 l -0.14506,2.94302 z"
         id="path3377"
         inkscape:connector-curvature="0" />
      <path
         style="fill:#09b309;fill-opacity:1;fill-rule:evenodd;stroke:#f37a29;stroke-width:0.0042699px;stroke-linecap:round;stroke-linejoin:round;stroke-miterlimit:4;stroke-dasharray:none;stroke-opacity:1"
         d="m 316.98606,444.32074 -0.0299,0.22154 c -0.42277,-0.0768 -0.76003,-0.20856 -1.02052,-0.38749 -2.15646,1.54178 -3.3305,2.38929 -3.53116,2.54254 0.40979,0.0341 0.76002,0.1191 1.04168,0.25541 0.28194,0.14055 0.4953,0.31101 0.63641,0.51534 0.14083,0.20461 0.22183,0.38354 0.23481,0.53678 0.0127,0.15748 0.0169,0.48543 0.0169,0.99653 0,0.41317 0.0429,0.70697 0.1239,0.89013 0.081,0.17893 0.21336,0.31524 0.39285,0.40471 0.18345,0.0895 0.37564,0.13208 0.58081,0.13208 0.32428,0 0.58054,-0.12362 0.77696,-0.37479 0.1922,-0.25146 0.29041,-0.51534 0.29041,-0.78797 0,-0.39201 -0.20489,-0.58787 -0.61496,-0.58787 -0.1366,0 -0.23481,0.0127 -0.29888,0.0426 -0.0641,0.0257 -0.094,0.0979 -0.094,0.20885 0,0.13179 0.10697,0.19586 0.31609,0.19586 0.0342,0 0.0897,-0.013 0.15381,-0.0384 0.0683,-0.0257 0.11515,-0.0384 0.14083,-0.0384 0.0169,0.0426 0.0257,0.081 0.0257,0.12361 0,0.0895 -0.0387,0.16595 -0.11119,0.23001 -0.0725,0.0638 -0.16651,0.0937 -0.28166,0.0937 -0.16228,0 -0.28194,-0.0556 -0.36294,-0.17469 -0.0813,-0.11515 -0.12389,-0.25993 -0.12389,-0.42587 0,-0.15325 0.0982,-0.31948 0.29464,-0.50264 0.19219,-0.18316 0.38862,-0.27263 0.57629,-0.27263 0.22211,0 0.39709,0.10668 0.52522,0.31524 0.12813,0.20857 0.19219,0.44733 0.19219,0.71544 0,0.5111 -0.17498,0.91581 -0.52945,1.2096 -0.35023,0.29379 -0.82832,0.43857 -1.43453,0.43857 -0.34177,0 -0.63218,-0.13179 -0.87122,-0.39595 -0.23904,-0.26416 -0.36294,-0.53651 -0.37564,-0.8176 0,-0.40471 -0.077,-0.88166 -0.23058,-1.43115 -0.15804,-0.55372 -0.61919,-0.94968 -1.39192,-1.18816 l -0.43151,3.24104 1.2683,0.0723 -0.0683,0.37056 c -1.02051,-0.14901 -1.93858,-0.20856 -2.7669,-0.18316 l 0.0469,-0.37479 1.29822,0.0511 c 0.0982,-1.10293 0.17921,-3.02796 0.23904,-5.77511 0.0641,-2.74687 0.094,-4.52713 0.094,-5.33654 -0.26896,0 -0.64064,-0.0254 -1.11873,-0.0722 l 0.0299,-0.29803 c 0.48684,0.0468 1.05467,0.0723 1.69926,0.0723 0.73463,0 1.31516,-0.0254 1.74216,-0.0723 l 0,0.22126 c -0.52098,0.0172 -0.91807,0.0426 -1.19549,0.0768 -0.0471,1.05608 -0.29888,3.59015 -0.75579,7.59799 l 3.34772,-2.65346 c -0.0299,-0.0381 -0.15805,-0.14054 -0.37592,-0.30649 -0.2176,-0.17046 -0.37141,-0.31101 -0.46116,-0.43011 l 0.2049,-0.22577 c 0.73886,0.71966 1.46473,1.17545 2.18637,1.37978 z"
         id="path3379"
         inkscape:connector-curvature="0" />
      <path
         style="fill:#09b309;fill-opacity:1;fill-rule:evenodd;stroke:#f37a29;stroke-width:0.0042699px;stroke-linecap:round;stroke-linejoin:round;stroke-miterlimit:4;stroke-dasharray:none;stroke-opacity:1"
         d="m 321.17057,445.45781 c -0.077,0.11091 -0.17103,0.16623 -0.28194,0.16623 -0.0683,0 -0.13236,-0.0299 -0.19219,-0.0937 -0.0598,-0.0595 -0.0895,-0.14055 -0.0895,-0.23848 0,-0.11938 0.0596,-0.21731 0.17497,-0.29379 0.11938,-0.081 0.24751,-0.11938 0.38439,-0.11938 0.15353,0 0.29887,0.0641 0.43547,0.19163 0.13236,0.12784 0.20066,0.25992 0.20066,0.40047 0,0.33217 -0.094,0.59605 -0.28194,0.7922 -0.18768,0.19586 -0.43124,0.29379 -0.72588,0.29379 -0.21759,0 -0.40132,-0.11063 -0.55061,-0.33218 -0.15805,-0.22154 -0.23058,-0.49417 -0.23058,-0.81788 0,-0.37479 0.162,-0.71543 0.4953,-1.02616 0.33302,-0.31524 0.67451,-0.46848 1.02475,-0.46848 0.71289,0 1.36624,0.31072 1.95975,0.92822 0.58928,0.62202 0.88816,1.32476 0.88816,2.10397 0,0.97113 -0.34149,1.83981 -1.01629,2.61931 -0.67451,0.77526 -1.40038,1.16275 -2.17339,1.16275 -0.87517,0 -1.66511,-0.35362 -2.36982,-1.05636 -0.70019,-0.70273 -1.05015,-1.53303 -1.05015,-2.48722 0,-0.8049 0.32427,-1.56718 0.96915,-2.2956 0.64911,-0.72813 1.41337,-1.18815 2.29729,-1.38825 l 0.0937,0.22578 c -0.67028,0.1191 -1.22541,0.50236 -1.66088,1.14977 -0.43547,0.64742 -0.65334,1.35439 -0.65334,2.11244 0,1.04337 0.21364,1.89089 0.64488,2.5383 0.43547,0.65165 1.0033,0.97536 1.70801,0.97536 0.53368,0 1.02898,-0.32794 1.4859,-0.98806 0.4524,-0.66011 0.67874,-1.43115 0.67874,-2.31676 0,-0.84328 -0.20066,-1.55053 -0.59351,-2.12541 -0.39286,-0.57489 -0.87517,-0.86022 -1.43877,-0.86022 -0.30762,0 -0.5636,0.11487 -0.76454,0.35334 -0.20066,0.23876 -0.30311,0.49418 -0.30311,0.77527 0,0.17893 0.0683,0.33217 0.20941,0.46425 0.1366,0.12785 0.26896,0.19163 0.39285,0.19163 0.16651,0 0.32879,-0.0595 0.4953,-0.17893 0.16228,-0.11909 0.24751,-0.23847 0.24751,-0.3491 0,-0.24272 -0.14929,-0.36633 -0.44845,-0.36633 -0.12361,0 -0.18768,0.0638 -0.18768,0.18316 0,0.0553 0.0768,0.11063 0.22635,0.17442 z"
         id="path3381"
         inkscape:connector-curvature="0" />
      <path
         style="fill:#09b309;fill-opacity:1;fill-rule:evenodd;stroke:#f37a29;stroke-width:0.0042699px;stroke-linecap:round;stroke-linejoin:round;stroke-miterlimit:4;stroke-dasharray:none;stroke-opacity:1"
         d="m 329.41992,444.72968 c -0.22634,0 -0.33725,-0.1064 -0.33725,-0.32371 0,-0.0979 0.0641,-0.20433 0.19219,-0.32371 0.12361,-0.11487 0.25174,-0.17018 0.3714,-0.17018 0.42277,0 0.6319,0.27658 0.6319,0.83876 0,0.31524 -0.1366,0.6048 -0.4143,0.8605 -0.27743,0.25541 -0.56783,0.38326 -0.86671,0.38326 -0.21336,0 -0.42277,-0.13632 -0.64036,-0.40894 -0.21364,-0.27686 -0.31609,-0.53651 -0.31609,-0.77922 0,-0.52409 0.19643,-0.98383 0.60198,-1.38007 0.39709,-0.39595 0.85824,-0.59633 1.37922,-0.59633 0.36717,0 0.70894,0.21731 1.02052,0.65588 0.31185,0.43462 0.46962,0.97536 0.46962,1.61855 0,1.8144 -1.09728,3.85007 -3.28761,6.10305 -0.40584,-1.16699 -0.94799,-2.42767 -1.62701,-3.78629 -0.67451,-1.35439 -1.20396,-2.24423 -1.58412,-2.66164 l -0.78118,0.30649 -0.1112,-0.37479 c 0.62343,-0.21279 1.09304,-0.40442 1.4176,-0.57912 0.32456,-0.17469 0.74309,-0.44309 1.25109,-0.79643 l 0.20489,0.29803 -0.82408,0.53255 0.70894,1.67358 0.54638,1.51638 c 0.32032,0.8986 0.66633,1.91206 1.04196,3.04066 0.78994,-0.74958 1.43906,-1.60556 1.94706,-2.56794 0.50828,-0.96266 0.76002,-1.86972 0.76002,-2.72147 0,-0.45155 -0.14083,-0.83904 -0.41825,-1.16699 -0.28194,-0.32794 -0.61497,-0.49417 -1.00359,-0.49417 -0.34572,0 -0.62766,0.0937 -0.854,0.27686 -0.22634,0.18317 -0.33726,0.41741 -0.33726,0.70274 0,0.27262 0.0556,0.49417 0.16652,0.66435 0.11514,0.17046 0.26895,0.25569 0.46538,0.25569 0.21364,0 0.41007,-0.0511 0.58928,-0.16199 0.18373,-0.1064 0.27319,-0.23848 0.27319,-0.40443 0,-0.10668 -0.0511,-0.20038 -0.14929,-0.28109 -0.0982,-0.081 -0.20066,-0.11938 -0.31186,-0.11938 -0.11515,0 -0.17498,0.12361 -0.17498,0.37056 z"
         id="path3383"
         inkscape:connector-curvature="0" />
      <path
         style="fill:#09b309;fill-opacity:1;fill-rule:evenodd;stroke:#f37a29;stroke-width:0.0042699px;stroke-linecap:round;stroke-linejoin:round;stroke-miterlimit:4;stroke-dasharray:none;stroke-opacity:1"
         d="m 334.49682,445.62404 c -0.0341,0.20009 -0.15381,0.29802 -0.35871,0.29802 -0.11514,0 -0.20912,-0.0426 -0.27742,-0.12333 -0.0728,-0.081 -0.10696,-0.18739 -0.10696,-0.31947 0,-0.15325 0.0641,-0.29803 0.19642,-0.43434 0.13237,-0.13632 0.27348,-0.20461 0.42701,-0.20461 0.7047,0 1.05466,0.20461 1.05466,0.61327 0,0.34092 -0.17921,0.65165 -0.53792,0.93697 -0.36293,0.2811 -0.67451,0.42588 -0.935,0.42588 -0.30762,0 -0.56811,-0.0892 -0.78147,-0.26388 -0.21364,-0.1747 -0.32032,-0.40894 -0.32032,-0.70273 0,-0.60904 0.28617,-1.22654 0.854,-1.85279 0.57235,-0.63021 1.17009,-0.94121 1.78477,-0.94121 0.50829,0 0.93952,0.21731 1.28524,0.65588 0.34601,0.43886 0.51675,0.97536 0.51675,1.61431 0,0.45551 -0.0641,0.84751 -0.19219,1.17122 -0.1239,0.32371 -0.32032,0.70697 -0.58053,1.14554 -0.66209,1.11168 -0.99512,2.12965 -0.99512,3.05788 0,0.10245 0.004,0.21308 0.013,0.32371 l -0.33303,0 0.0127,-1.05608 c -0.65334,0.43011 -1.12296,0.64742 -1.40913,0.64742 -0.35419,0 -0.6446,-0.11091 -0.87517,-0.32794 -0.23058,-0.21731 -0.34177,-0.50264 -0.34177,-0.85203 0,-0.33217 0.16651,-0.62173 0.51251,-0.87715 0.34149,-0.25569 0.71741,-0.38354 1.13566,-0.38354 0.29888,0 0.77301,-0.0296 1.42635,-0.0937 0.38834,-0.83876 0.58054,-1.58411 0.58054,-2.23999 0,-1.51215 -0.34996,-2.26597 -1.0589,-2.26597 -0.6446,0 -1.11026,0.20462 -1.39192,0.61327 -0.28194,0.40471 -0.42277,0.97113 -0.42277,1.68656 0,0.19615 0.0598,0.36633 0.17921,0.50687 0.11966,0.14055 0.26501,0.20885 0.43998,0.20885 0.2176,0 0.42277,-0.0979 0.6192,-0.29831 0.19643,-0.20433 0.29464,-0.42164 0.29464,-0.66012 0,-0.13208 -0.0598,-0.24694 -0.18373,-0.34487 -0.11966,-0.0979 -0.25202,-0.14902 -0.39708,-0.14902 -0.0641,0 -0.11967,0.0384 -0.16651,0.11063 -0.0514,0.0725 -0.0768,0.14478 -0.0768,0.22578 0,0.14902 0.0553,0.22155 0.16651,0.22155 0.0895,0 0.17075,-0.0214 0.24328,-0.0725 z m 1.06313,2.75562 c -0.43124,0.0254 -0.77696,0.0596 -1.04168,0.10216 -0.26049,0.0468 -0.47414,0.16623 -0.63641,0.36209 -0.16228,0.19586 -0.24328,0.40443 -0.24328,0.6175 0,0.20433 0.0556,0.37479 0.16651,0.50687 0.11091,0.13208 0.25203,0.2001 0.43124,0.2001 0.31185,0 0.66181,-0.19586 1.05043,-0.58335 l 0.27319,-1.20537 z m 1.47743,-7.64484 c -0.3587,0.15748 -0.67451,0.28533 -0.95222,0.38749 -0.28165,0.10217 -0.61919,0.26839 -1.01204,0.49841 -0.39258,0.23424 -0.67028,0.38749 -0.82833,0.46425 -0.008,-0.0426 -0.0641,-0.13208 -0.15776,-0.27263 0.72136,-0.34092 1.59681,-0.92004 2.6258,-1.73764 0.0215,0.0381 0.0725,0.14902 0.14957,0.33641 0.081,0.19163 0.1366,0.29803 0.17498,0.32371 z"
         id="path3385"
         inkscape:connector-curvature="0" />
    </g>
  </g>
</svg>
